<svg width="420" height="120" viewBox="0 0 420 120" fill="none" xmlns="http://www.w3.org/2000/svg">
<path d="M108.057 110C106.907 110 105.907 109.575 105.057 108.725L90.054 93.7209C89.2538 92.9207 88.8538 91.9204 88.8538 90.7201V46.7592C88.8538 45.5589 89.2538 44.5586 90.054 43.7584L105.057 28.7547C105.907 27.9045 106.907 27.4794 108.057 27.4794H148.189C149.44 27.4794 150.065 28.1045 150.065 29.3548V108.124C150.065 109.375 149.44 110 148.189 110H129.361C128.661 110 128.086 109.9 127.636 109.7C127.186 109.5 126.761 109.175 126.36 108.725L122.61 104.974L118.859 108.725C118.009 109.575 117.009 110 115.859 110H108.057ZM119.309 85.0187H119.609C120.609 85.0187 121.36 84.7436 121.86 84.1935C122.36 83.6434 122.61 82.8682 122.61 81.8679V52.4606H119.459C118.459 52.4606 117.684 52.7357 117.134 53.2858C116.584 53.8359 116.309 54.6111 116.309 55.6114V81.8679C116.309 82.8682 116.559 83.6434 117.059 84.1935C117.609 84.7436 118.359 85.0187 119.309 85.0187Z" fill="white"/>
<path d="M158.27 110C157.02 110 156.395 109.375 156.395 108.124V11.8755C156.395 10.6252 157.02 10 158.27 10H205.904C207.054 10 208.054 10.4001 208.905 11.2003L223.907 26.204C224.707 27.0543 225.107 28.0545 225.107 29.2048V44.9587C225.107 45.4588 225.007 45.8589 224.807 46.159C224.607 46.4591 224.307 46.8092 223.907 47.2093L212.13 57.7119L210.855 59.7374L212.13 62.5131L223.907 73.0157C224.307 73.4158 224.607 73.7659 224.807 74.066C225.007 74.316 225.107 74.7161 225.107 75.2663V90.7201C225.107 91.9204 224.707 92.9207 223.907 93.7209L208.905 108.725C208.054 109.575 207.054 110 205.904 110H158.27ZM190.751 85.0937C192.752 85.0937 194.402 84.4686 195.702 83.2183C197.002 81.9179 197.653 80.2675 197.653 78.267C197.653 76.2165 197.002 74.5661 195.702 73.3158C194.402 72.0155 192.752 71.3653 190.751 71.3653C188.751 71.3653 187.101 72.0155 185.8 73.3158C184.5 74.5661 183.85 76.2165 183.85 78.267C183.85 80.2675 184.5 81.9179 185.8 83.2183C187.101 84.4686 188.751 85.0937 190.751 85.0937ZM190.376 48.2595C192.277 48.2595 193.827 47.6344 195.027 46.3841C196.277 45.1338 196.902 43.5834 196.902 41.7329C196.902 39.8324 196.277 38.2821 195.027 37.0818C193.827 35.8314 192.277 35.2063 190.376 35.2063C188.526 35.2063 186.976 35.8314 185.725 37.0818C184.475 38.2821 183.85 39.8324 183.85 41.7329C183.85 43.5834 184.475 45.1338 185.725 46.3841C186.976 47.6344 188.526 48.2595 190.376 48.2595Z" fill="white"/>
<path d="M250.612 110C249.462 110 248.462 109.575 247.611 108.725L232.609 93.7209C231.809 92.9207 231.409 91.9204 231.409 90.7201V46.7592C231.409 45.5589 231.809 44.5586 232.609 43.7584L247.611 28.7547C248.462 27.9045 249.462 27.4794 250.612 27.4794H290.744C291.994 27.4794 292.62 28.1045 292.62 29.3548V108.124C292.62 109.375 291.994 110 290.744 110H271.916C271.216 110 270.641 109.9 270.191 109.7C269.74 109.5 269.315 109.175 268.915 108.725L265.165 104.974L261.414 108.725C260.564 109.575 259.564 110 258.413 110H250.612ZM261.864 85.0187H262.164C263.164 85.0187 263.914 84.7436 264.414 84.1935C264.915 83.6434 265.165 82.8682 265.165 81.8679V52.4606H262.014C261.014 52.4606 260.239 52.7357 259.689 53.2858C259.139 53.8359 258.863 54.6111 258.863 55.6114V81.8679C258.863 82.8682 259.114 83.6434 259.614 84.1935C260.164 84.7436 260.914 85.0187 261.864 85.0187Z" fill="white"/>
<path d="M300.825 110C299.575 110 298.95 109.375 298.95 108.124V91.0202C298.95 89.8699 299.325 89.1197 300.075 88.7697L315.303 80.7426V78.117L300.075 69.8649C299.325 69.4648 298.95 68.6646 298.95 67.4643V42.3331C298.95 41.933 299 41.5579 299.1 41.2078C299.2 40.8077 299.475 40.4326 299.925 40.0825L315.903 28.3796C316.253 28.1795 316.628 27.9795 317.028 27.7794C317.428 27.5794 317.853 27.4794 318.303 27.4794H341.558C342.808 27.4794 343.433 28.1045 343.433 29.3548V46.084C343.433 46.7342 343.383 47.2593 343.283 47.6594C343.233 48.0595 342.958 48.3846 342.458 48.6346L328.43 56.2115V58.7622L342.158 66.264C343.008 66.6641 343.433 67.4143 343.433 68.5146V92.7456C343.433 93.996 343.008 94.9962 342.158 95.7464L327.455 109.025C326.655 109.675 325.655 110 324.455 110H300.825Z" fill="white"/>
<path d="M380.395 110C380.045 110 379.669 109.95 379.269 109.85C378.919 109.75 378.544 109.6 378.144 109.4L364.417 102.873L351.139 96.4966C350.239 96.0965 349.789 95.0962 349.789 93.4958V46.7592C349.789 45.5589 350.189 44.5586 350.989 43.7584L365.992 28.7547C366.842 27.9045 367.842 27.4794 368.993 27.4794H391.797C392.947 27.4794 393.947 27.9045 394.797 28.7547L409.8 43.7584C410.6 44.5586 411 45.5589 411 46.7592V77.5168H378.294V80.3676L384.52 83.1432L398.923 87.2693C399.473 87.3193 399.748 88.0945 399.748 89.5949V108.124C399.748 109.375 399.123 110 397.873 110H380.395ZM381.37 63.2633H381.52C383.42 63.2633 384.845 62.7132 385.796 61.6129C386.796 60.5126 387.296 58.8872 387.296 56.7367V56.5116C387.296 54.3611 386.796 52.7357 385.796 51.6354C384.845 50.5351 383.42 49.985 381.52 49.985H381.295C379.544 49.985 378.169 50.5351 377.169 51.6354C376.219 52.7357 375.744 54.3611 375.744 56.5116V56.7367C375.744 58.8872 376.219 60.5126 377.169 61.6129C378.119 62.7132 379.519 63.2633 381.37 63.2633Z" fill="white"/>
<path d="M80.6784 10.3784C82.036 10.3784 82.7148 11.0012 82.7148 12.2468V108.132C82.7148 109.377 82.036 110 80.6784 110H29.9334C28.6301 110 27.5441 109.601 26.6753 108.804L10.3847 93.8572C9.46157 93.0102 9 92.0138 9 90.8678V29.5853C9 28.3895 9.46157 27.3931 10.3847 26.5959L26.6753 11.6489C27.5441 10.8019 28.6301 10.3784 29.9334 10.3784H80.6784ZM52.0071 35.4893H43.0473C40.7666 35.4893 39.6262 36.8844 39.6262 39.6745V80.7039C39.6262 83.5438 40.7666 84.9638 43.0473 84.9638H52.0071V35.4893Z" fill="white"/>
</svg>
