<svg width="512" height="512" viewBox="0 0 512 512" fill="none" xmlns="http://www.w3.org/2000/svg">
<path d="M97 268.616C97 264.669 98.988 262.696 102.964 262.696H409.036C413.012 262.696 415 264.669 415 268.616V416.142C415 419.931 413.727 423.088 411.183 425.614L363.471 472.974C360.767 475.658 357.586 477 353.928 477H158.31C154.493 477 151.312 475.658 148.767 472.974L101.056 425.614C98.3518 423.088 97 419.931 97 416.142V268.616ZM177.156 351.969V378.018C177.156 384.648 181.609 387.963 190.515 387.963H321.484C330.55 387.963 335.082 384.648 335.082 378.018V351.969H177.156Z" fill="white"/>
<path d="M415 246.701C415 250.68 413.013 252.67 409.04 252.67H103.181C99.208 252.67 97.2214 250.68 97.2214 246.701V95.1129C97.2214 91.4525 98.4929 88.2695 101.036 85.564L148.714 37.8196C151.416 35.2732 154.595 34 158.25 34H208.313C209.902 34 211.174 34.3183 212.127 34.9549C213.081 35.5915 214.193 36.5464 215.465 37.8196L248.84 75.2989L255.276 79.3572L264.097 75.2989L297.472 37.8196C298.743 36.5464 299.856 35.5915 300.809 34.9549C301.604 34.3183 302.876 34 304.624 34H353.733C357.547 34 360.726 35.2732 363.269 37.8196L410.947 85.564C413.649 88.2695 415 91.4525 415 95.1129V246.701ZM335.853 143.335C335.853 136.969 333.867 131.717 329.894 127.579C325.761 123.441 320.517 121.372 314.16 121.372C307.643 121.372 302.399 123.441 298.426 127.579C294.293 131.717 292.227 136.969 292.227 143.335C292.227 149.701 294.293 154.953 298.426 159.09C302.399 163.228 307.643 165.297 314.16 165.297C320.517 165.297 325.761 163.228 329.894 159.09C333.867 154.953 335.853 149.701 335.853 143.335ZM218.802 144.528C218.802 138.481 216.816 133.547 212.842 129.728C208.869 125.749 203.942 123.76 198.062 123.76C192.023 123.76 187.096 125.749 183.281 129.728C179.308 133.547 177.322 138.481 177.322 144.528C177.322 150.417 179.308 155.35 183.281 159.329C187.096 163.308 192.023 165.297 198.062 165.297C203.942 165.297 208.869 163.308 212.842 159.329C216.816 155.35 218.802 150.417 218.802 144.528Z" fill="white"/>
</svg>
