<svg width="512" height="512" viewBox="0 0 512 512" fill="none" xmlns="http://www.w3.org/2000/svg">
<rect width="512" height="512" fill="white"/>
<path d="M434 439.407C434 446.466 431.768 449.996 427.305 449.996H179.038C176.182 449.996 173.503 448.584 171.004 445.76L81.0173 345.796C78.3391 342.69 77 338.172 77 332.242V180.601C77 174.389 78.3391 169.871 81.0173 167.047L171.004 66.2358C173.503 63.4119 176.182 62 179.038 62H427.305C431.768 62 434 65.5298 434 72.5894V227.618C434 234.678 431.768 238.208 427.305 238.208H344.663C334.838 238.208 326.873 246.173 326.873 255.998C326.873 265.823 334.838 273.788 344.663 273.788H427.305C431.768 273.788 434 277.318 434 284.378V439.407ZM233.941 255.998C233.941 243.856 231.53 233.972 226.71 226.348C221.889 218.723 215.729 214.911 208.23 214.911C200.553 214.911 194.304 218.723 189.483 226.348C184.662 233.972 182.252 243.856 182.252 255.998C182.252 268.141 184.662 278.024 189.483 285.648C194.304 293.273 200.553 297.085 208.23 297.085C215.729 297.085 221.889 293.273 226.71 285.648C231.53 278.024 233.941 268.141 233.941 255.998Z" fill="black"/>
<ellipse cx="321.597" cy="375.561" rx="31.4604" ry="31.4641" fill="white"/>
<ellipse cx="321.597" cy="138.283" rx="31.4604" ry="31.4641" fill="white"/>
<ellipse cx="205.553" cy="255.998" rx="41.2928" ry="41.2928" fill="#BA0000"/>
</svg>
